<svg width="1024" height="1024" viewBox="0 0 1024 1024" fill="none" xmlns="http://www.w3.org/2000/svg">
  <defs>
    <filter id="shadow-blur" x="180" y="718" width="664" height="170" filterUnits="userSpaceOnUse" color-interpolation-filters="sRGB">
      <feFlood flood-opacity="0" result="BackgroundImageFix"/>
      <feBlend mode="normal" in="SourceGraphic" in2="BackgroundImageFix" result="shape"/>
      <feGaussianBlur stdDeviation="24" result="effect1_foregroundBlur_0_1"/>
    </filter>
    <filter id="pin-shadow" x="554" y="350" width="216" height="234" filterUnits="userSpaceOnUse" color-interpolation-filters="sRGB">
      <feFlood flood-opacity="0" result="BackgroundImageFix"/>
      <feColorMatrix in="SourceAlpha" type="matrix" values="0 0 0 0 0 0 0 0 0 0 0 0 0 0 0 0 0 0 127 0" result="hardAlpha"/>
      <feOffset dx="0" dy="10"/>
      <feGaussianBlur stdDeviation="14"/>
      <feComposite in2="hardAlpha" operator="out"/>
      <feColorMatrix type="matrix" values="0 0 0 0 0.0941176 0 0 0 0 0.333333 0 0 0 0 0.219608 0 0 0 0.22 0"/>
      <feBlend mode="normal" in2="BackgroundImageFix" result="effect1_dropShadow_0_1"/>
      <feBlend mode="normal" in="SourceGraphic" in2="effect1_dropShadow_0_1" result="shape"/>
    </filter>
    <radialGradient id="ocean-base" cx="0" cy="0" r="1" gradientUnits="userSpaceOnUse" gradientTransform="translate(404 300) rotate(46.02) scale(490.703 473.46)">
      <stop stop-color="#67CEDC"/>
      <stop offset="0.48" stop-color="#38B6C9"/>
      <stop offset="1" stop-color="#2497A8"/>
    </radialGradient>
    <radialGradient id="ocean-highlight" cx="0" cy="0" r="1" gradientUnits="userSpaceOnUse" gradientTransform="translate(388 282) rotate(56.932) scale(284.882 237.311)">
      <stop stop-color="#84D8E3" stop-opacity="0.78"/>
      <stop offset="1" stop-color="#84D8E3" stop-opacity="0"/>
    </radialGradient>
    <radialGradient id="ocean-shade" cx="0" cy="0" r="1" gradientUnits="userSpaceOnUse" gradientTransform="translate(654 620) rotate(-127.486) scale(339.472 300.598)">
      <stop stop-color="#1E7B8A" stop-opacity="0.5"/>
      <stop offset="1" stop-color="#1E7B8A" stop-opacity="0"/>
    </radialGradient>
    <linearGradient id="land-green" x1="284" y1="356" x2="754" y2="620" gradientUnits="userSpaceOnUse">
      <stop stop-color="#2A6A48"/>
      <stop offset="1" stop-color="#185538"/>
    </linearGradient>
    <linearGradient id="land-orange" x1="460" y1="438" x2="700" y2="564" gradientUnits="userSpaceOnUse">
      <stop stop-color="#FFB048"/>
      <stop offset="1" stop-color="#FF9F1C"/>
    </linearGradient>
    <clipPath id="globe-clip">
      <circle cx="512" cy="448" r="308"/>
    </clipPath>
  </defs>

  <g filter="url(#shadow-blur)">
    <ellipse cx="512" cy="803" rx="284" ry="37" fill="#185538" fill-opacity="0.16"/>
  </g>

  <g clip-path="url(#globe-clip)">
    <circle cx="512" cy="448" r="308" fill="url(#ocean-base)"/>
    <circle cx="512" cy="448" r="308" fill="url(#ocean-highlight)"/>
    <circle cx="512" cy="448" r="308" fill="url(#ocean-shade)"/>

    <path d="M282 290C338 242 423 232 474 276C521 317 514 379 454 416C406 445 331 443 286 409C237 372 232 321 282 290Z" fill="#FCECDA"/>
    <path d="M250 474C325 426 432 433 500 486C551 526 550 600 495 654C425 722 312 721 240 661C181 612 184 517 250 474Z" fill="#FCECDA"/>
    <path d="M572 278C631 246 714 256 768 304C816 348 818 426 758 482C701 535 612 548 562 501C524 465 525 406 557 366C575 343 601 333 631 326C597 324 576 313 572 278Z" fill="#FCECDA"/>
    <path d="M488 338C535 320 584 333 609 366C633 399 618 438 574 457C538 473 488 468 457 442C423 413 433 359 488 338Z" fill="#FCECDA"/>

    <path d="M323 600C355 576 412 582 440 609C463 631 454 664 420 682C389 700 342 699 316 676C292 655 294 623 323 600Z" fill="url(#land-green)"/>
    <path d="M608 462C637 446 680 451 704 472C724 489 722 517 694 534C667 550 626 550 603 532C580 513 581 478 608 462Z" fill="url(#land-green)"/>
    <path d="M356 368C378 354 411 356 427 372C442 387 438 411 417 424C395 438 361 437 345 421C329 405 334 381 356 368Z" fill="url(#land-green)"/>

    <path d="M517 546C555 529 603 537 627 562C610 578 582 588 553 587C531 586 511 576 498 560C500 554 507 550 517 546Z" fill="url(#land-orange)"/>
    <circle cx="698" cy="594" r="8" fill="#FF9F1C"/>
    <circle cx="718" cy="607" r="5.5" fill="#FF9F1C"/>
    <path d="M542 528C577 522 616 529 651 553" stroke="#FF9F1C" stroke-width="7" stroke-linecap="round" stroke-opacity="0.88"/>
  </g>

  <g filter="url(#pin-shadow)">
    <path d="M664 360C706 360 740 392 740 434C740 490 685 539 664 571C643 539 588 490 588 434C588 392 622 360 664 360Z" fill="#FF5FA2"/>
    <circle cx="664" cy="434" r="22" fill="#FCECDA"/>
  </g>
</svg>
