<svg width="240" height="240" viewBox="0 0 240 240" fill="none" xmlns="http://www.w3.org/2000/svg">
  <rect width="240" height="240" rx="120" fill="#F6EFE6"/>
  <circle cx="120" cy="88" r="44" fill="#D08C60"/>
  <path d="M54 214C62 159.876 85.707 132.813 120 132.813C154.293 132.813 178 159.876 186 214H54Z" fill="#255C4B"/>
  <path d="M74 96C78.6267 67.6987 94.2933 53.548 121 53.548C147.707 53.548 163.373 67.6987 168 96C155.333 85.9013 143 80.852 131 80.852C113 80.852 99 92.6333 90 100.58L74 96Z" fill="#5A3424"/>
  <circle cx="104" cy="92" r="5" fill="#231510"/>
  <circle cx="136" cy="92" r="5" fill="#231510"/>
  <path d="M102 115C108 121 117.333 124 130 124C138 124 145 121 151 115" stroke="#7A3D32" stroke-width="8" stroke-linecap="round"/>
</svg>
