<svg width="240" height="240" viewBox="0 0 240 240" fill="none" xmlns="http://www.w3.org/2000/svg">
  <rect width="240" height="240" rx="120" fill="#EEF4FF"/>
  <circle cx="120" cy="90" r="42" fill="#D9A67F"/>
  <path d="M54 214C60.6667 160.374 82.6667 133.561 120 133.561C157.333 133.561 179.333 160.374 186 214H54Z" fill="#1A5A66"/>
  <path d="M76 88C80 57.3333 94.6667 42 120 42C145.333 42 160 57.3333 164 88L154 105C146 82.3333 132.667 71 114 71C100.667 71 88 76.6667 76 88Z" fill="#503524"/>
  <circle cx="104" cy="94" r="5" fill="#1F1611"/>
  <circle cx="136" cy="94" r="5" fill="#1F1611"/>
  <path d="M101 118C108.333 123.333 116.333 126 125 126C133.667 126 141.667 123.333 149 118" stroke="#7D4337" stroke-width="8" stroke-linecap="round"/>
</svg>
