<svg width="240" height="240" viewBox="0 0 240 240" fill="none" xmlns="http://www.w3.org/2000/svg">
  <rect width="240" height="240" rx="120" fill="#EDF3F0"/>
  <circle cx="120" cy="90" r="42" fill="#D6A17D"/>
  <path d="M54 214C59.3333 160.374 81.3333 133.561 120 133.561C158.667 133.561 180.667 160.374 186 214H54Z" fill="#21483C"/>
  <path d="M72 94C72 59.3333 88 42 120 42C152 42 168 59.3333 168 94L150 102C145.333 82 132.667 72 112 72C98.6667 72 85.3333 79.3333 72 94Z" fill="#4B362A"/>
  <circle cx="103" cy="94" r="5" fill="#1A120E"/>
  <circle cx="137" cy="94" r="5" fill="#1A120E"/>
  <path d="M102 118C109.333 123.333 117.333 126 126 126C134.667 126 142.667 123.333 150 118" stroke="#7A4334" stroke-width="8" stroke-linecap="round"/>
</svg>
